# xmcd
# 
# Track frame offsets:
#     150
#     23966
#     40278
#     57983
#     68590
#     86859
#     106578
#     123271
#     143983
#     153188
#     166407
#     190357
#     202901
#     233694
#     244529
#     269537
#     293707
#     301620
#     321762
#     338073
# 
# Disc length: 4750
# 
# Revision: 4
# Processed by: cddbd v1.5.2PL0 Copyright (c) Steve Scherf et al.
# Submitted via: fre:ac v1.1beta1pre5
# 
DISCID=0e128c14
DTITLE=Various Artist - Gilles Peterson In The House CD1
DYEAR=2007
DGENRE=House
TTITLE0=Wahoo - Don't Take It Personal (Feat. Paul Randolph)
TTITLE1=Larry Heard Presents Mr. White - You Rock Me (Long Version)
TTITLE2=N'Dambi - Can't Change Me (Ron Trent Remix)
TTITLE3=Bernard Wright - Spinnin'
TTITLE4=Blaze - Wishing You Were Here (Joey Negro Remix)
TTITLE5=Simbad - Supersonic Revelation (Feat. Abdul Shylion) (Marathon Men Remix)
TTITLE6=Alex Attias Presents Mustang - Let The Rhythm Get It (Unreleased Dub Version)
TTITLE7=Tone 7 - Mr. V - Dub Dub - Jus' Dance [Acapella]
TTITLE8=Vincent Montana, Jr. - The African Track (Louis Benedetti Mix)
TTITLE9=Phlash and Friends - Revolution =Solution
TTITLE10=Deetron - I Cling (Feat. Ovasoul7)
TTITLE11=Mike Dunn Presents The MD X-Spress - This Here Is House Muzik
TTITLE12=Sandy Rivera and Jose Burgos - This Will Change It
TTITLE13=Son Of Raw - A Black Man In Space (Saw Mix)
TTITLE14=Stimming - Funkworm
TTITLE15=Roland Appel - Dark Soldier
TTITLE16=Nick Holder - Time (Feat. Sacha) (Six Series Dub)
TTITLE17=Mario Basanov and Vidis - Test
TTITLE18=The Young Lovers - You Make Me Dizzy
TTITLE19=Shuya Okina - Thank You (Feat. Navasha Daya) (Replayed by Sleep Walker)
EXTD=
EXTT0=
EXTT1=
EXTT2=
EXTT3=
EXTT4=
EXTT5=
EXTT6=
EXTT7=
EXTT8=
EXTT9=
EXTT10=
EXTT11=
EXTT12=
EXTT13=
EXTT14=
EXTT15=
EXTT16=
EXTT17=
EXTT18=
EXTT19=
PLAYORDER=
